<?xml version="1.0" encoding="UTF-8"?>
<svg id="Camada_1" data-name="Camada 1" xmlns="http://www.w3.org/2000/svg" viewBox="0 0 834 678">
  <defs>
    <style>
      .cls-1 {
        fill: #fefefe;
      }

      .cls-1, .cls-2, .cls-3, .cls-4, .cls-5, .cls-6 {
        stroke-width: 0px;
      }

      .cls-2 {
        fill: #030303;
      }

      .cls-3 {
        fill: #050505;
      }

      .cls-4 {
        fill: #010101;
      }

      .cls-6 {
        fill: #fcfcfc;
      }
    </style>
  </defs>
  <path class="cls-1" d="M169.06,677.9c-54.99,0-109.97-.04-164.96.1-3.42,0-4.11-.67-4.1-4.1.15-45.99.1-91.97.1-137.96,2.65.2,2.73,2.61,3.44,4.27,9.8,23.19,28.47,34.32,52.27,38.24,6.46,1.06,7.83-.52,10.56-6.33,8.34-17.72,19.22-33.29,38.53-40.51,14.13-5.28,25.42-13.94,35.04-25.54,9.59-11.56,21.58-20.71,33.11-30.31,22.27-18.55,44.19-37.5,61.88-60.74,4.24-5.58,9.35-8.71,16.97-8.55,9.57.2,18.74-2.76,27.33-7.08,8.23-4.14,11.76-11.14,12.56-20.15,1-11.3.97-22.61.91-33.92-.02-4.02,1.3-7.43,3.38-10.77,14.99-24.03,29.04-48.62,41.68-73.97,15.4-30.89,28.29-62.85,40-95.3,8.99-24.92,17.73-49.9,24.16-75.64,6.09-24.42,10.57-49.16,14.84-73.95.9-5.24,1.62-10.52,3.24-15.61C556.47.09,692.94.11,829.41,0c3.75,0,4.6.84,4.59,4.59-.11,132.46-.09,264.93-.09,397.39-1.99.45-3.11-1.67-4.99-1.66-1.84,0-3.71-.14-4.94,1.54-.88,1.21-.62,2.53.19,3.69,1.14,1.64,2.81,2.08,4.75,2.08,1.89,0,3.01-2.11,4.99-1.65,0,89.31-.03,178.62.1,267.92,0,3.42-.67,4.09-4.09,4.09-219.95-.1-439.9-.09-659.84-.09.09-5.91,2.36-11.35,3.95-16.87,14.33-49.75,26.89-99.98,40.93-149.8,5.64-20.03,10.2-40.34,15.99-60.32.13-.45.23-.94-.4-1.6-3.64,3.02-7.4,5.94-10.78,9.33-13.65,13.66-27.69,26.96-40.83,41.09-8.95,9.62-18.79,18.41-26.98,28.73-1.35,1.7-2.72,3.38-3.92,5.18-4.95,7.45-7.33,14.96-5.06,24.4,9.18,38.19,17.04,76.69,25.77,114.98.37,1.61,1,3.2.32,4.88Z"/>
  <path class="cls-1" d="M.1,519.95v-86.98c7.84-.45,10.29-6.65,13.35-12.34,14.74-27.4,29.16-54.96,42.89-82.88,2.43-4.93,4.93-9.81,7.8-14.5.83-1.36,2.16-2.62,1.55-4.79-3.61.52-6.27,2.84-9.06,4.75-17.03,11.64-34.47,22.67-51.55,34.25-1.45.99-2.9,2.38-4.97,1.54C.1,240.77.12,122.55,0,4.32,0,.67.81,0,4.37,0c137.55.11,275.09.09,412.64.09-.36,3.27-3.29,3.87-5.49,5.03-10.6,5.59-21.71,10.12-32.34,15.67-30.69,16.02-58.77,35.91-85.91,57.25-24.39,19.18-47.43,39.89-68.4,62.7-20.81,22.64-43.05,44.04-61.16,69.1-20.32,28.11-38.32,57.64-55.63,87.67-17.14,29.75-32.89,60.2-47.84,91.07-9.5,19.62-19,39.25-27.32,59.43-1.85,4.49-2.02,8.41.39,12.8,4.55,8.3,3.68,16.7-.76,24.81-2.9,5.29-6.84,9.81-11.01,14.15-6,6.24-12.55,11.94-18.08,18.64-.82,1-1.74,2.11-3.35,1.53Z"/>
  <path class="cls-5" d="M.1,519.95c9.12-9.61,18.57-18.94,27.26-28.93,8.39-9.63,10.58-20.61,3.65-32.19-2.23-3.72-1.03-6.98.4-10.38,11.21-26.65,23.8-52.65,36.71-78.5,28.76-57.6,59.99-113.76,98.28-165.72,8.51-11.54,18.21-22.06,27.96-32.55,25.05-26.95,49.75-54.22,77.97-78.02,37.76-31.84,77.39-60.82,122.32-81.94,7.61-3.58,15.7-6.21,22.35-11.63h3c.46.88.8,1.7.59,2.81-7.25,39.06-13.43,78.37-25.6,116.33-24.38,76.05-54.82,149.37-98.4,216.71-2,3.09-2.67,6.36-2.74,9.92-.2,10.82-.48,21.64-.71,32.46-.25,11.59-5.86,19.39-16.54,23.78-9.02,3.7-18.29,6.21-28.1,5.87-4.05-.14-7.22,1.2-9.55,4.33-22.55,30.24-51.72,53.53-80.55,77.21-7.74,6.36-14.55,13.72-21,21.35-8.72,10.32-19.53,17.32-32.12,21.99-14.04,5.21-23.85,15.39-31.33,28.04-2.86,4.83-6.34,9.3-7.39,15.1-.55,3.05-3.23,3.92-6.18,3.91-8.64-.03-16.82-2.06-24.6-5.67-16.2-7.52-28.39-18.94-34.55-36.1-.28-.77-.74-1.47-1.12-2.2,0-5.33,0-10.66,0-16Z"/>
  <path class="cls-5" d="M169.06,677.9c-3.36-8.56-4.47-17.68-6.47-26.57-7.43-32.91-14.55-65.9-21.86-98.84-.92-4.15-.11-7.89,1.63-11.59,3.08-6.53,7.23-12.33,12.17-17.56,24.24-25.67,49.15-50.68,74.6-75.15,1-.96,1.98-2.86,3.61-2.05,1.52.75.4,2.42.08,3.58-7.86,29.19-15.76,58.37-23.69,87.55-12.15,44.73-24.32,89.46-36.54,134.18-.6,2.21-1.68,4.3-2.54,6.45h-1Z"/>
  <path class="cls-1" d="M.1,428.97v-63.98c.85-1.47,2.04-2.61,3.48-3.5,12.31-7.66,24.22-15.91,36.49-23.63.71-.44,1.43-.86,2.2-1.18,2.33-.99,4.58-.92,6.58.73,2.17,1.8,1.98,4.14,1,6.39-3.31,7.65-7.09,15.09-11.07,22.39-8.3,15.21-15.65,30.9-23.94,46.11-2.32,4.24-4.55,8.55-7.54,12.35-1.77,2.26-3.49,5.07-7.2,4.32Z"/>
  <path class="cls-4" d="M.1,428.97c5.23-1.8,7.57-6.4,9.89-10.75,9.52-17.89,18.86-35.88,28.24-53.84,3.38-6.48,6.77-12.96,10.02-19.5,1.06-2.14,2.65-4.49.1-6.77-2.55-2.28-4.72-1.05-7.13.51-13.66,8.85-27.4,17.59-41.11,26.36,0-2,0-4,0-6,19.42-12.77,38.8-25.6,58.3-38.25,2.73-1.77,6.25-6.08,8.69-3.8,2.77,2.59-1.59,6.03-3.1,8.97-11.88,23.17-23.76,46.33-35.77,69.44-5.66,10.89-11.74,21.55-17.3,32.49-2.44,4.8-5.87,6.26-10.82,5.13v-4Z"/>
  <path class="cls-3" d="M833.9,405.98c-1.17,1.28-1.81,3.13-4.02,3.21-3.35.11-6.39-.53-7.76-3.92-.98-2.42-.09-4.9,2.38-5.72,3.44-1.15,7.14-1.69,9.4,2.43v4Z"/>
  <path class="cls-5" d="M346.94,346.44c0-17.97.06-35.95-.06-53.92-.02-3.37.56-4.99,4.52-5.07,34.13-.7,68.25-.69,102.35.85,8.28.37,16.43,2.48,23.9,6.47,8.48,4.53,13.25,11.35,13.24,21.2-.01,21.14-.11,42.28.04,63.42.06,8.72-3.85,14.85-11,19.36-9.87,6.23-20.77,8.75-32.25,9.06-31.95.87-63.91.49-95.87.19-4.46-.04-4.83-2.41-4.84-5.64,0-18.64,0-37.28,0-55.92-.01,0-.03,0-.04,0Z"/>
  <path class="cls-5" d="M686.09,408.8c-1.93,0-4.23-1.85-5.95-4.45-3.67-5.54-7.5-11.01-10.79-16.78-5.51-9.68-12.99-14.23-24.71-14-24.8.47-49.63-.32-74.44-.73-2.94-.05-4.66,1.44-6.3,3.34-4.48,5.18-8.04,11.02-11.83,16.68-2.96,4.43-5.83,8.92-9.48,12.83-1.73,1.85-3.59,3.49-6.33,3.58-3.92.13-5.53-1.83-4.47-5.57,1.01-3.56,2.9-6.72,4.89-9.78,21.27-32.79,42.58-65.55,63.9-98.3,1.18-1.81,2.5-3.53,3.85-5.22,5.1-6.4,12.71-5.58,16.98,1.52,19.02,31.66,40.27,61.88,60.25,92.92,3.51,5.45,6.99,10.92,10.24,16.53,2.58,4.45.67,7.47-5.82,7.42Z"/>
  <path class="cls-5" d="M767.29,370.13c-16.16,0-32.32.18-48.48-.11-4.78-.08-6.23,1.81-6.03,6.09.09,1.99-.08,4-.08,5.99.03,8.91,4.67,14.83,13.55,16.91,7.18,1.68,14.54,1.62,21.86,1.84,7.16.21,14.34.04,21.45,1.08,1.71.25,4.25.04,4.17,2.47-.07,2.19-2.19,3.29-4.33,3.4-5.32.27-10.65.55-15.98.52-12.15-.08-24.33.07-36.22-3.14-13.22-3.58-17.01-8.31-17.16-21.82-.11-10.33-.11-20.66-.03-30.99.13-16.69,6.06-23.54,22.79-25.42,17.59-1.97,35.28-1.17,52.93-1.11,10.48.04,21-.27,31.35,2.02,3.1.69,6.08,1.67,8.94,3.07,4.65,2.28,7.46,5.7,8.17,11.08.96,7.3,1.17,14.58.96,21.92-.11,3.79-1.68,5.28-5.4,5.5-14.98.91-29.98.3-44.97.46-2.5.03-5,0-7.5,0v.22Z"/>
  <path class="cls-2" d="M319.72,398.84c3.56-.04,6.29,1.05,6.21,5.21-.08,4.38-3.35,5.47-6.8,5.49-3.38.02-6.79-.9-7.24-5.13-.36-3.35,3.02-5.62,7.82-5.57Z"/>
  <path class="cls-2" d="M512.27,398.83c2.72.34,6.24.33,6.77,4.53.4,3.12-3.72,6.02-7.91,5.83-3.64-.16-6.21-1.82-6.11-5.71.12-4.35,3.47-4.65,7.25-4.65Z"/>
  <path class="cls-1" d="M151.23,347.46c.21,11.54-.4,22.72.63,33.85.9,9.79,5.85,16.71,14.86,20.77,8.81,3.97,18.1,5.45,27.67,5.75,8.82.28,17.64.66,26.46,1.02,1.33.05,2.68.13,3.97.43,4.93,1.16,5.83,3.66,2.61,7.42-17.16,20.07-36.44,37.98-56.72,54.8-16.45,13.64-31.57,28.65-46.62,43.75-5.25,5.27-11.05,9.5-18.22,11.83-21.19,6.88-34.18,22.21-42.51,42.07-1.74,4.16-4.38,6-8.72,5.86-3.21-.1-6.28-.85-9.22-2.04-19.36-7.83-34.39-19.93-40.83-40.8-1.27-4.12-.05-7.16,2.14-10.19,3.24-4.46,7.17-8.31,11.03-12.23,3.74-3.79,7.4-7.67,11.01-11.59,11.31-12.26,13.31-26.26,7.59-41.63-1.36-3.65.05-6.87,1.4-10.09,7.09-16.86,15.29-33.19,23.28-49.63,24.12-49.64,49.19-98.79,79.48-145.03,43.82-66.92,98.46-123.9,160.34-174.26,28.01-22.79,58.2-42.08,90.15-58.76,2.8-1.46,5.58-2.96,8.29-4.58,3.68-2.2,7.74-3.11,11.37-.91,3.65,2.2,1.48,6.22.98,9.19-5.92,35.12-13.65,69.78-24.54,103.78-22,68.65-50.5,134.3-88.13,195.87-3.61,5.9-6.78,12.1-14.48,14.28-3.79,1.07-4.02,5.55-4.06,9-.04,4.23-1.33,7.81-3.8,11.09-10.22,13.55-20.46,27.09-30.67,40.66-1.54,2.05-3.58,2.83-6.03,2.94-16.82.73-33.74,1.47-50.42-.44-14.63-1.68-25.96-10.37-25.48-27.16.5-17.31-.03-34.65.42-51.96.34-13.18,7.32-20.86,20.35-23.81,5.75-1.3,11.6-.89,17.42-1.07,7.32-.23,14.65-.3,21.98-.55,1.63-.06,3.28-.49,4.86-.93,1.75-.48,2.18-1.9,2.03-3.54-.15-1.62-1.29-2.21-2.7-2.44-.49-.08-.99-.15-1.49-.15-15.65-.02-31.36-1.2-46.91,1.01-8.98,1.28-17.47,4.52-23.47,11.97-2.85,3.55-4.39,7.7-4.74,12.38-.86,11.49-.32,22.98-.57,34.08Z"/>
  <path class="cls-6" d="M279.54,376.02c-.26,9.99-7.6,18.4-16.96,20-1.45.25-3.34.83-4.27-.35-1.08-1.36.4-2.8,1.23-3.95,4.39-6.02,8.82-12.02,13.35-17.93,1.15-1.5,2.5-3.89,4.63-2.96,2.13.93,1.66,3.73,2.02,5.19Z"/>
  <path class="cls-1" d="M145.85,550.35c-.28-3.66,1.05-6.83,2.85-9.91,3.81-6.51,8.63-12.23,13.8-17.67,15.95-16.78,32.21-33.27,49.56-48.62,1.59-1.41,3.17-4.29,5.77-2.78,2.64,1.54,2.36,4.59,1.68,7.24-3.31,12.87-6.78,25.71-10.05,38.59-10.17,40.11-21.6,79.87-32.63,119.74-.93,3.35-2.4,6.54-3.66,9.79-1.13,2.91-2.46,3.26-4.31.43-2.14-3.26-3.35-6.87-4.31-10.57-7.06-27.21-12.11-54.88-18.32-82.28-.29-1.29-.27-2.65-.4-3.97Z"/>
  <path class="cls-1" d="M360.09,346.25c0-14.81.04-29.63-.03-44.44-.02-4.15,1.21-6.07,5.97-6.22,28.48-.91,56.94-.24,85.39.61,6.46.19,12.36,2.6,17.72,6.1,4.8,3.14,8.1,7.3,8.34,13.41.84,21.13,1.28,42.28.2,63.4-.5,9.89-10.03,18.25-21.83,19.84-15.55,2.1-31.23,1.63-46.87,1.85-12.98.18-25.97.21-38.96.11-8.5-.07-10.63-2.06-10.76-10.7-.23-14.65-.06-29.3-.06-43.95.3,0,.59,0,.89,0Z"/>
  <path class="cls-1" d="M612.55,366.63c-10.81,0-21.63.23-32.44-.08-6.6-.19-7.97-2.98-5.27-9.17.4-.91.76-1.87,1.32-2.67,10.29-14.7,18.35-30.84,29.06-45.27,6.27-8.44,8.07-8.72,13.93.08,10.39,15.62,20.36,31.53,30.24,47.48,3.64,5.87,2.05,8.62-4.93,8.8-10.63.27-21.28.07-31.92.07,0,.25,0,.51,0,.76Z"/>
  <path class="cls-1" d="M763.05,364.92c-12.32,0-24.64.02-36.96-.02-1.82,0-3.67-.13-5.47-.4-7.17-1.09-7.83-2.15-8.04-9.33-.2-6.89.22-13.18,6.77-17.56,2.73-1.83,5.28-3.26,8.59-3.32,23.47-.41,46.95-.63,70.4.74,8.46.49,14.84,7.63,14.98,16.15,0,.5,0,1,0,1.5.04,9.37-1.24,10.8-10.85,11.34-6.65.38-13.3.61-19.96.73-6.49.12-12.99.03-19.48.03v.15Z"/>
</svg>